<svg viewBox="0 0 100 32" fill="none" xmlns="http://www.w3.org/2000/svg" class="css-1dedw3v"><path d="M21.473 14.378h-5.925V12.56c0-.85-.075-1.388-.228-1.622-.15-.232-.404-.35-.758-.35-.384 0-.674.157-.87.471-.197.314-.296.788-.296 1.425 0 .818.111 1.436.332 1.85.213.414.813.915 1.803 1.5 2.84 1.686 4.628 3.069 5.365 4.15.737 1.08 1.105 2.824 1.105 5.228 0 1.748-.203 3.036-.614 3.865-.409.828-1.2 1.523-2.37 2.083-1.173.56-2.537.84-4.092.84-1.708 0-3.164-.322-4.372-.97-1.207-.646-1.997-1.469-2.37-2.47-.375-1-.56-2.418-.56-4.257v-1.606h5.924v2.985c0 .92.085 1.512.25 1.773.166.263.461.393.886.393s.74-.167.948-.5c.207-.333.31-.828.31-1.485 0-1.444-.196-2.389-.591-2.832-.404-.444-1.399-1.187-2.986-2.228-1.586-1.05-2.636-1.813-3.152-2.288-.514-.474-.942-1.13-1.279-1.97-.339-.838-.507-1.909-.507-3.211 0-1.88.24-3.252.72-4.121.478-.869 1.254-1.548 2.325-2.038 1.07-.49 2.364-.735 3.879-.735 1.656 0 3.067.268 4.234.804 1.168.535 1.94 1.209 2.319 2.023.379.813.569 2.196.569 4.144v.967h.001ZM35.031 6.502h-9.219l-3.254 25.449h6.596l.384-7.422h2.282l.342 7.422h6.52l-3.65-25.449Zm-5.604 14.21 1.203-8.056 1.202 8.055h-2.405Z" fill="#175CD3"></path><path d="M13.013 4.219c-1.687-.42-6.771 3.057-7.166 4.39.084 1.388 1.753 2.51 1.753 2.51s-.24.452 3.77-2.02c4.01-2.47 3.382-2.763 3.382-2.763s-.808-1.884-1.74-2.117Z" fill="#18418A"></path><path d="M11.542 4.276c-2.211.742-5.544 3.198-5.863 4.273.05.824.82 2.608 1.914 2.608.065-.001.502-.093.646-.326.888-1.178 3.08-10.608 3.303-6.555Z" fill="#212B55"></path><path d="M11.206 6.81 16.482 0 5.575 3.273.763 10.944l10.443-4.135Z" fill="#233770"></path><path d="m16.482 0-5.276 6.81L.763 10.943l.114.293L11.32 7.104l5.276-6.81L16.482 0Z" fill="#212B55"></path><path d="M7.664 4.023c-.028.012-.049.028-.073.042a2.699 2.699 0 0 0-.353-.014c-.795-.002-2.305.267-3.04 1.995-.528 1.243-.326 2.108-.161 2.803.142.6.244 1.036-.19 1.488-.402.42-.783.559-1.153.694-.518.19-1.006.367-1.306 1.3l.235.076c.264-.82.657-.964 1.155-1.145.378-.137.806-.295 1.246-.754.527-.55.4-1.09.253-1.717-.156-.66-.35-1.481.15-2.65.58-1.364 1.688-1.723 2.46-1.799.137-.014.244-.012.335-.005-.267.277-.335.591-.286.767 0 0 .969-.148 2.064-1.044-.002.003-.462-.453-1.336-.037Z" fill="#F6A019"></path><path d="M1.555 12.705c.197-.03.334-.202.305-.386-.028-.185-.208-.31-.405-.28-.197.03-.333.202-.305.387.026.184.209.309.405.279Z" fill="#F6A019"></path><path d="M1.803 12.435c-.611-.178-1.125.324-1.396.912-.386.843-.505 1.582-.324 1.806.18.225.505-.325.598-.453 0 0 .021.932.286.894.267-.039.427-.685.427-.685s.11.613.368.669c.256.056.251-.767.251-.767s.2.767.564.58c.363-.19-.164-2.78-.774-2.956Z" fill="#F6A019"></path><path d="M53.275 18.178v13.805l-2.584-.003-.403-.77c-1.146.503-2.52.754-4.127.754-1.516 0-2.808-.245-3.878-.735-1.07-.49-1.847-1.169-2.326-2.038-.288-.52-.488-1.221-.604-2.104-.05-.402-.087-.84-.103-1.318V12.68c.016-.437.046-.842.091-1.216.113-.93.318-1.665.616-2.206.48-.869 1.255-1.548 2.326-2.038 1.07-.49 2.364-.733 3.878-.733 1.657 0 3.068.268 4.235.804 1.166.535 1.94 1.209 2.319 2.023.326.7.512 1.824.556 3.368l.002.063c.014.276.012.508.012.816v.815H47.36v-1.525l-.002-.169v-.074c0-.849-.075-1.39-.226-1.621-.151-.232-.404-.35-.758-.35-.385 0-.674.159-.87.47-.18.285-.278.701-.294 1.25a5.373 5.373 0 0 0 0 .322v13.087a3.934 3.934 0 0 0 0 .321c.016.55.114.967.293 1.25.197.314.486.47.87.47.355 0 .606-.116.759-.349.153-.232.226-.772.226-1.622v-3.812h-1.16v-3.852h7.077v.005Z" fill="#175CD3"></path><path d="M65.672 13.061c-.477 0-.902-.093-1.274-.279a3.186 3.186 0 0 1-.946-.707l.299-.318c.238.265.524.48.856.643.332.163.686.243 1.065.243.504 0 .902-.122 1.196-.368.29-.246.438-.562.438-.946 0-.272-.052-.492-.16-.656a1.319 1.319 0 0 0-.422-.413 4.35 4.35 0 0 0-.594-.303l-.995-.448a6.018 6.018 0 0 1-.593-.323 1.773 1.773 0 0 1-.528-.507c-.142-.209-.214-.476-.214-.802 0-.318.082-.599.249-.84.167-.243.393-.433.683-.568.287-.135.616-.203.98-.203.392 0 .743.077 1.055.233.313.156.567.34.767.553l-.258.298a2.32 2.32 0 0 0-.677-.482 2.041 2.041 0 0 0-.886-.185c-.432 0-.781.107-1.05.318a1.037 1.037 0 0 0-.403.856c0 .253.06.459.184.618.123.16.272.29.447.388.176.1.344.186.502.258l.995.439c.246.107.472.23.681.374.21.142.38.32.507.537.13.216.195.493.195.832 0 .331-.086.631-.258.9-.172.269-.416.48-.732.632-.315.152-.684.226-1.109.226ZM70.56 12.942V6.78h-2.09v-.398h4.639v.398h-2.09v6.162h-.459ZM76.466 13.062c-.28 0-.55-.042-.811-.125a1.814 1.814 0 0 1-.708-.423c-.209-.198-.375-.469-.498-.81-.123-.343-.184-.77-.184-1.28V6.382h.458v3.99c0 .578.08 1.033.244 1.364.163.332.377.566.642.702.265.137.551.204.857.204.319 0 .614-.068.886-.204.272-.135.491-.37.656-.702.167-.331.25-.786.25-1.363V6.382h.428v4.042c0 .51-.062.937-.185 1.28-.123.341-.288.612-.498.81-.209.198-.446.34-.71.423a2.782 2.782 0 0 1-.828.125ZM80.595 12.942v-6.56h1.524c.677 0 1.233.135 1.672.404.439.268.765.645.981 1.13.216.484.323 1.058.323 1.721 0 .664-.107 1.243-.323 1.738-.216.495-.542.88-.98 1.155-.44.275-.992.412-1.663.412h-1.534Zm.458-.388h1.017c.596 0 1.082-.124 1.458-.373.375-.25.651-.594.827-1.03.175-.44.263-.943.263-1.514 0-.57-.088-1.07-.263-1.498a2.123 2.123 0 0 0-.827-1.006c-.376-.242-.862-.363-1.459-.363h-1.016v5.784ZM87.633 12.943v-2.657l-1.96-3.901h.487l.995 2.05c.113.238.227.474.34.707.111.232.23.47.357.716h.04l.37-.716c.118-.232.23-.469.338-.707l.995-2.05h.469l-1.971 3.901v2.657h-.46ZM62.938 22.41l2.03-6.49h1.762l2.03 6.49h-1.552l-.399-1.542h-1.981l-.399 1.543h-1.492Zm2.348-3.285-.16.597h1.383l-.15-.597c-.085-.325-.173-.67-.262-1.035-.09-.365-.178-.716-.264-1.055h-.04c-.079.346-.162.698-.244 1.06-.083.361-.17.706-.263 1.03ZM69.467 22.41v-6.49h2.22c.451 0 .857.048 1.215.144.358.097.644.26.856.494.213.231.32.558.32.975 0 .286-.076.565-.225.841-.149.276-.356.463-.621.563v.04c.332.087.609.255.832.504.223.25.333.59.333 1.02 0 .444-.112.806-.339 1.085-.226.279-.528.486-.905.621-.38.137-.804.204-1.274.204h-2.412Zm1.464-3.892h.686c.358 0 .62-.07.781-.209a.694.694 0 0 0 .244-.558c0-.253-.082-.432-.249-.537-.167-.105-.421-.16-.767-.16h-.697v1.464h.002Zm0 2.757h.827c.803 0 1.204-.291 1.204-.876 0-.286-.1-.49-.299-.612-.198-.123-.5-.184-.905-.184h-.827v1.672ZM75.49 22.41v-6.49h2.34c.457 0 .875.062 1.254.185.38.122.681.33.906.621.226.293.338.697.338 1.215 0 .477-.105.87-.314 1.179-.209.309-.49.539-.84.691l1.472 2.598h-1.643l-1.244-2.34h-.805v2.34H75.49v.002Zm1.464-3.503h.756c.384 0 .68-.08.88-.243.203-.164.304-.404.304-.722 0-.317-.101-.54-.303-.667-.202-.126-.497-.19-.881-.19h-.756v1.822ZM84.23 22.529c-.585 0-1.098-.135-1.538-.407-.442-.272-.786-.662-1.035-1.17-.25-.51-.374-1.114-.374-1.817 0-.711.124-1.313.373-1.808a2.69 2.69 0 0 1 1.036-1.136c.44-.261.953-.393 1.538-.393.584 0 1.096.132 1.537.394.44.261.786.642 1.035 1.139.25.498.374 1.098.374 1.802s-.124 1.31-.374 1.816c-.249.508-.593.899-1.035 1.171-.442.272-.955.409-1.537.409Zm0-1.264c.444 0 .796-.193 1.054-.577.26-.384.388-.902.388-1.553 0-.651-.13-1.159-.388-1.524a1.226 1.226 0 0 0-1.055-.547c-.444 0-.796.182-1.054.547-.258.365-.388.873-.388 1.524 0 .65.13 1.167.388 1.553.258.386.609.577 1.055.577ZM87.574 22.41l2.03-6.49h1.763l2.03 6.49h-1.553l-.398-1.542h-1.982l-.398 1.543h-1.492Zm2.35-3.285-.16.597h1.383l-.149-.597a57.94 57.94 0 0 1-.263-1.035c-.09-.365-.177-.716-.263-1.055h-.04l-.245 1.06c-.082.361-.17.706-.263 1.03ZM94.104 22.41v-6.49h1.832c.664 0 1.238.113 1.722.34.484.225.862.575 1.13 1.049.269.473.404 1.082.404 1.827 0 .744-.133 1.356-.398 1.84a2.523 2.523 0 0 1-1.11 1.08c-.474.235-1.03.353-1.667.353h-1.913v.002Zm1.464-1.184h.279c.372 0 .695-.067.97-.198.276-.134.49-.351.643-.657.152-.305.228-.716.228-1.234 0-.517-.077-.925-.228-1.22a1.323 1.323 0 0 0-.643-.626 2.365 2.365 0 0 0-.97-.184h-.28v4.119ZM66.361 31.997c-.563 0-1.056-.138-1.478-.417-.42-.28-.749-.674-.986-1.185-.235-.51-.353-1.114-.353-1.811 0-.697.122-1.297.364-1.802a2.762 2.762 0 0 1 1.016-1.17c.435-.275.94-.412 1.518-.412.444 0 .81.084 1.1.255.288.168.52.345.692.532l-.269.308a2.302 2.302 0 0 0-.612-.477c-.242-.133-.542-.198-.9-.198-.497 0-.929.12-1.294.363a2.322 2.322 0 0 0-.84 1.025c-.197.44-.294.967-.294 1.578 0 .603.093 1.132.28 1.583.185.45.456.8.81 1.046.355.245.781.368 1.28.368.298 0 .579-.043.84-.13.262-.085.472-.208.632-.368v-2.041h-1.572v-.388h2.01v2.597c-.204.22-.471.399-.801.537-.332.14-.711.207-1.143.207ZM69.985 31.88v-6.56h.458v6.161h3.026v.399h-3.484ZM76.914 31.997c-.525 0-.989-.14-1.394-.422-.405-.283-.723-.68-.956-1.19-.232-.511-.35-1.115-.35-1.812 0-.69.116-1.288.35-1.791.231-.504.55-.894.956-1.17a2.417 2.417 0 0 1 1.394-.412c.53 0 .998.139 1.404.413.405.275.723.665.956 1.169.232.505.348 1.102.348 1.791 0 .697-.116 1.3-.348 1.812-.231.51-.55.907-.956 1.19a2.396 2.396 0 0 1-1.404.422Zm0-.417c.444 0 .832-.125 1.165-.374.332-.25.591-.598.776-1.05.186-.45.279-.979.279-1.583 0-.603-.093-1.126-.28-1.567-.185-.442-.443-.783-.775-1.025a1.922 1.922 0 0 0-1.165-.363c-.444 0-.834.121-1.166.363-.331.242-.591.585-.776 1.025-.185.44-.278.964-.278 1.567 0 .604.093 1.132.278 1.584.187.45.445.802.776 1.049.332.25.72.374 1.166.374ZM81.124 31.88v-6.56h1.772c.664 0 1.192.128 1.583.384.392.256.588.658.588 1.209 0 .346-.086.646-.258.9-.172.257-.425.434-.756.534v.04c.424.067.767.234 1.025.502.258.269.388.628.388 1.08 0 .63-.222 1.107-.662 1.428-.442.323-1.034.483-1.776.483h-1.904Zm.458-3.674h1.135c.67 0 1.153-.11 1.448-.333a1.08 1.08 0 0 0 .442-.91c0-.466-.156-.793-.468-.982-.313-.19-.77-.284-1.374-.284H81.58v2.51h.002Zm0 3.296h1.323c.651 0 1.165-.122 1.543-.368.377-.246.567-.63.567-1.155 0-.47-.185-.821-.553-1.05-.369-.228-.888-.343-1.559-.343H81.58v2.916h.002ZM85.991 31.88l2.31-6.56h.458l2.31 6.56h-.478l-.768-2.25h-2.598l-.776 2.25h-.458Zm1.79-3.861-.417 1.225h2.329l-.418-1.225c-.134-.392-.258-.767-.38-1.125a26.04 26.04 0 0 1-.348-1.145h-.04a21.43 21.43 0 0 1-.35 1.145c-.116.358-.242.732-.376 1.125ZM92.111 31.88v-6.56h.458v6.161h3.026v.399h-3.484Z" fill="#233770"></path></svg>